# xmcd
# 
# Track frame offsets:
#     150
#     22800
#     47097
#     70097
#     92900
#     113107
#     133890
#     160240
#     180667
#     214035
# 
# Disc length: 3178
# 
# Revision: 4
# Processed by: cddbd v1.5.2PL0 Copyright (c) Steve Scherf et al.
# Submitted via: fre:ac v1.0.31
# 
DISCID=850c680a
DTITLE=Chris Duarte - Tailspin Headwhack
DYEAR=1997
DGENRE=Rock/Pop
TTITLE0=Cleopatra
TTITLE1=Crimino
TTITLE2=The Thrill Is Gone
TTITLE3=Drivin' South
TTITLE4=Catch the Next Line
TTITLE5=Tailspin Headwhack
TTITLE6=People Say
TTITLE7=Crazy
TTITLE8=32 Blues
TTITLE9=Watts
EXTD=
EXTT0=
EXTT1=
EXTT2=
EXTT3=
EXTT4=
EXTT5=
EXTT6=
EXTT7=
EXTT8=
EXTT9=
PLAYORDER=
